PathFileType	4	(x/y/z)	S02_PSF_T01
DataRate	CameraRate	NumFrames	NumMarkers	Units	OrigDataRate	OrigDataStartFrame	OrigNumFrames
240	240	8	51	mm	240	100	398
Frame#	Time	Sternum			R.Acromium			L.Acromium			Top.Head			R.ASIS			L.ASIS			R.PSIS			L.PSIS			R.Great.Tro			L.Great.Tro			R.Iliac.Crest			L.Iliac.Crest			V.Sacral			R.Thigh.Upper.Post			R.Thigh.Lower.Ant			R.Thigh.Lower.Post			R.Thigh.Upper.Ant			R.Knee.Lat			R.Knee.Med			R.Shank.Upper.Post			R.Shank.Lower.Ant			R.Shank.Lower.Post			R.Shank.Upper.Ant			R.Ankle.Lat			R.Ankle.Med			R.Heel.Upper			R.Heel.Med			R.Heel.Lat			R.Toe.Lat			R.Toe.Med			R.Toe.Tip			L.Thigh.Upper.Post			L.Thigh.Lower.Ant			L.Thigh.Lower.Post			L.Thigh.Upper.Ant			L.Knee.Lat			L.Knee.Med			L.Shank.Upper.Post			L.Shank.Lower.Ant			L.Shank.Lower.Post			L.Shank.Upper.Ant			L.Ankle.Lat			L.Ankle.Med			L.Heel.Upper			L.Heel.Med			L.Heel.Lat			L.Toe.Lat			L.Toe.Med			L.Toe.Tip			Cervical.Spine			Back			
		X1	Y1	Z1	X2	Y2	Z2	X3	Y3	Z3	X4	Y4	Z4	X5	Y5	Z5	X6	Y6	Z6	X7	Y7	Z7	X8	Y8	Z8	X9	Y9	Z9	X10	Y10	Z10	X11	Y11	Z11	X12	Y12	Z12	X13	Y13	Z13	X14	Y14	Z14	X15	Y15	Z15	X16	Y16	Z16	X17	Y17	Z17	X18	Y18	Z18	X19	Y19	Z19	X20	Y20	Z20	X21	Y21	Z21	X22	Y22	Z22	X23	Y23	Z23	X24	Y24	Z24	X25	Y25	Z25	X26	Y26	Z26	X27	Y27	Z27	X28	Y28	Z28	X29	Y29	Z29	X30	Y30	Z30	X31	Y31	Z31	X32	Y32	Z32	X33	Y33	Z33	X34	Y34	Z34	X35	Y35	Z35	X36	Y36	Z36	X37	Y37	Z37	X38	Y38	Z38	X39	Y39	Z39	X40	Y40	Z40	X41	Y41	Z41	X42	Y42	Z42	X43	Y43	Z43	X44	Y44	Z44	X45	Y45	Z45	X46	Y46	Z46	X47	Y47	Z47	X48	Y48	Z48	X49	Y49	Z49	X50	Y50	Z50	X51	Y51	Z51	

100	0.4125	-950.03	1102.6	301.48	-1062.2	1341.9	440.31	-1047.9	1340.4	146.11	-1029.9	1626.8	303.7	NaN	NaN	NaN	NaN	NaN	NaN	-1193.2	968.55	366.67	-1207.3	972.24	293.56	-1011.5	815.63	502.12	-1122.8	821.05	116.32	-1072.3	980.64	466	-1116.2	970.25	138.44	-1224.1	921.32	327.8	-938.47	634.88	492.36	-861.28	582.54	450.24	-920.63	547.76	474.72	-884.35	668.3	464.76	-879.71	482.76	458.46	-885.57	466.13	313.98	-914.92	266.81	441	-822.31	206.78	435.89	-889.56	198.33	434.72	-841.73	273.6	448.46	-847.86	111.06	427.04	-830.43	130.82	348.15	-895.03	82.148	363.2	-869.36	57.283	336.86	-890.05	49.786	397.5	-740.16	73.908	464.63	-693.02	84.362	365.91	-662.57	117.75	428.74	-1183.5	616.44	160.73	-1119.8	525.93	165.53	-1196.9	530.37	187.69	-1113.9	617.76	139.71	-1151.3	448.86	182.51	-1145.4	454.19	322.54	-1258	294.87	198.74	-1204	198.3	216.91	-1275	223.28	222.76	-1199.9	271.74	196.84	-1263	104.52	241.06	-1247.8	102.88	320.76	-1322.7	71.846	277.25	-1313.8	46.014	309.34	-1318.1	44.933	248.05	-1153.5	34.815	214.29	-1130.2	44.272	323.64	-1070	58.075	275.01	-1137.2	1401.9	290.94	-1215.4	1153	295.42
101	0.41667	-944.66	1101.4	301.45	-1056.7	1340.8	440.34	-1042.1	1339.3	146.24	-1024.5	1625.7	303.95	NaN	NaN	NaN	NaN	NaN	NaN	-1187.4	967.44	367.31	-1201.7	971.12	294.29	-1005	814.41	501.94	-1118.2	820.59	116.43	-1066.3	979.69	466.17	-1111.3	969.15	138.75	-1218.2	920.13	328.58	-932.41	633.62	491.84	-855.85	581.04	448.92	-914.88	546.39	474.26	-878.66	666.87	463.33	-873.98	481.52	457.81	-880.81	464.62	312.86	-904.08	265.09	440.14	-809.91	207.46	435.07	-876.92	197.28	433.86	-831.25	273.69	447.83	-832.72	110.86	426.18	-815.86	131.11	347.4	-879.27	80.608	362.45	-852.92	56.409	336.07	-873.31	48.379	396.72	-723.95	76.453	463.54	-677.4	88.233	364.89	-647.62	122.51	427.58	-1179.9	616.43	160.62	-1116.8	525.49	165.58	-1193.9	530.48	187.62	-1110.3	617.26	139.71	-1148.9	448.56	182.49	-1143.3	453.95	322.61	-1256.7	295.17	198.71	-1203.1	198.35	216.86	-1274	223.7	222.71	-1198.6	271.72	196.8	-1262.8	104.77	241.09	-1247.5	103.08	320.79	-1322.6	72.063	277.26	-1313.8	46.221	309.36	-1318.1	45.137	248.07	-1153.5	34.772	214.29	-1130.1	44.245	323.62	-1069.9	57.919	274.99	-1131.6	1400.9	290.98	-1209.9	1152	295.42
102	0.42083	-939.28	1100.1	301.45	-1051.3	1339.7	440.39	-1036.3	1338.2	146.39	-1019.1	1624.6	304.22	NaN	NaN	NaN	NaN	NaN	NaN	-1181.6	966.29	367.93	-1196.1	969.95	295.01	-998.5	813.08	501.73	-1113.6	820.09	116.55	-1060.3	978.69	466.35	-1106.3	968.01	139.05	-1212.3	918.91	329.34	-926.36	632.31	491.33	-850.43	579.49	447.64	-909.14	544.98	473.83	-872.99	665.39	461.95	-868.27	480.24	457.17	-876.02	463.11	311.76	-893.45	263.49	439.27	-797.81	208.18	434.23	-864.56	196.36	432.97	-820.97	273.81	447.17	-817.97	110.79	425.26	-801.72	131.51	346.59	-863.91	79.26	361.67	-836.93	55.722	335.23	-856.98	47.178	395.91	-708.19	79.065	462.35	-662.3	92.131	363.74	-633.14	127.25	426.29	-1176.2	616.38	160.53	-1113.8	525.02	165.63	-1190.8	530.54	187.56	-1106.6	616.72	139.71	-1146.5	448.23	182.48	-1141.1	453.69	322.7	-1255.4	295.45	198.7	-1202.2	198.38	216.83	-1273	224.11	222.64	-1197.2	271.68	196.76	-1262.6	105.03	241.1	-1247.2	103.29	320.81	-1322.5	72.296	277.25	-1313.7	46.449	309.38	-1318	45.354	248.08	-1153.5	34.727	214.28	-1130.1	44.219	323.61	-1069.9	57.756	274.96	-1126	1399.9	291.04	-1204.4	1151	295.44
103	0.425	-933.89	1098.8	301.46	-1045.8	1338.5	440.46	-1030.6	1337.1	146.56	-1013.7	1623.5	304.52	NaN	NaN	NaN	NaN	NaN	NaN	-1175.8	965.1	368.54	-1190.5	968.73	295.73	-992.02	811.67	501.5	-1109	819.56	116.67	-1054.3	977.63	466.53	-1101.3	966.84	139.34	-1206.5	917.65	330.08	-920.34	630.97	490.84	-845.01	577.91	446.41	-903.42	543.54	473.4	-867.34	663.89	460.62	-862.58	478.93	456.56	-871.21	461.59	310.68	-883.01	261.99	438.4	-786.04	208.93	433.34	-852.51	195.55	432.04	-810.92	273.96	446.49	-803.62	110.84	424.3	-788.03	132.02	345.74	-848.99	78.084	360.86	-821.43	55.2	334.34	-841.11	46.163	395.07	-692.91	81.708	461.04	-647.74	96.016	362.46	-619.16	131.93	424.86	-1172.4	616.27	160.44	-1110.7	524.51	165.67	-1187.6	530.55	187.5	-1102.8	616.14	139.7	-1143.9	447.86	182.47	-1138.8	453.39	322.78	-1253.9	295.7	198.7	-1201.2	198.38	216.8	-1271.9	224.54	222.55	-1195.8	271.62	196.71	-1262.4	105.32	241.1	-1247	103.51	320.82	-1322.4	72.548	277.24	-1313.6	46.701	309.39	-1318	45.586	248.09	-1153.4	34.68	214.27	-1130	44.191	323.58	-1069.8	57.586	274.94	-1120.4	1398.8	291.12	-1198.9	1149.9	295.48
104	0.42917	-928.49	1097.4	301.48	-1040.2	1337.2	440.55	-1024.8	1335.9	146.74	-1008.2	1622.3	304.83	NaN	NaN	NaN	NaN	NaN	NaN	-1170	963.87	369.15	-1184.7	967.48	296.44	-985.56	810.18	501.23	-1104.3	819	116.79	-1048.3	976.52	466.72	-1096.3	965.64	139.62	-1200.6	916.36	330.8	-914.34	629.59	490.36	-839.59	576.33	445.22	-897.7	542.09	472.97	-861.69	662.36	459.35	-856.9	477.62	455.96	-866.37	460.09	309.62	-872.81	260.6	437.53	-774.61	209.69	432.42	-840.77	194.83	431.09	-801.08	274.12	445.78	-789.71	110.99	423.3	-774.81	132.59	344.82	-834.55	77.059	360.02	-806.45	54.815	333.41	-825.73	45.307	394.19	-678.13	84.345	459.64	-633.74	99.846	361.06	-605.69	136.49	423.31	-1168.6	616.11	160.37	-1107.4	523.96	165.7	-1184.2	530.51	187.46	-1098.9	615.53	139.68	-1141.2	447.45	182.46	-1136.3	453.05	322.85	-1252.4	295.94	198.73	-1200.1	198.37	216.79	-1270.7	224.97	222.45	-1194.2	271.54	196.67	-1262.2	105.63	241.09	-1246.7	103.75	320.82	-1322.3	72.822	277.21	-1313.6	46.983	309.39	-1317.9	45.838	248.08	-1153.4	34.631	214.27	-1129.9	44.164	323.56	-1069.7	57.407	274.91	-1114.8	1397.7	291.22	-1193.3	1148.8	295.54
105	0.43333	-923.06	1096	301.53	-1034.7	1335.9	440.65	-1019	1334.6	146.95	-1002.8	1621.1	305.15	NaN	NaN	NaN	NaN	NaN	NaN	-1164.2	962.6	369.75	-1179	966.19	297.14	-979.12	808.61	500.94	-1099.5	818.4	116.91	-1042.4	975.35	466.91	-1091.3	964.42	139.88	-1194.7	915.05	331.49	-908.34	628.2	489.89	-834.14	574.74	444.08	-891.97	540.62	472.54	-856.03	660.84	458.16	-851.2	476.32	455.36	-861.47	458.62	308.59	-862.83	259.3	436.66	-763.53	210.44	431.46	-829.36	194.19	430.11	-791.47	274.28	445.04	-776.27	111.2	422.24	-762.09	133.21	343.85	-820.61	76.163	359.15	-792.04	54.541	332.43	-810.88	44.586	393.27	-663.88	86.938	458.13	-620.3	103.58	359.51	-592.75	140.9	421.62	-1164.6	615.91	160.32	-1104	523.37	165.73	-1180.8	530.41	187.44	-1094.9	614.87	139.66	-1138.3	447	182.46	-1133.6	452.67	322.92	-1250.9	296.16	198.77	-1199	198.32	216.79	-1269.4	225.4	222.34	-1192.5	271.44	196.63	-1262	105.97	241.07	-1246.4	104.01	320.82	-1322.1	73.122	277.17	-1313.5	47.298	309.38	-1317.8	46.114	248.07	-1153.4	34.58	214.27	-1129.9	44.134	323.54	-1069.6	57.22	274.89	-1109.2	1396.6	291.35	-1187.7	1147.7	295.62
106	0.4375	-917.61	1094.5	301.59	-1029.1	1334.6	440.78	-1013.2	1333.4	147.18	-997.31	1619.8	305.5	NaN	NaN	NaN	NaN	NaN	NaN	-1158.4	961.3	370.34	-1173.2	964.86	297.83	-972.71	806.99	500.63	-1094.7	817.76	117.03	-1036.4	974.15	467.11	-1086.2	963.16	140.13	-1188.8	913.72	332.16	-902.36	626.79	489.42	-828.66	573.18	443	-886.23	539.16	472.09	-850.36	659.33	457.04	-845.49	475.03	454.76	-856.51	457.2	307.58	-853.09	258.1	435.8	-752.8	211.15	430.45	-818.31	193.62	429.12	-782.09	274.42	444.25	-763.32	111.45	421.13	-749.89	133.83	342.83	-807.22	75.375	358.25	-778.22	54.349	331.41	-796.59	43.972	392.31	-650.18	89.445	456.52	-607.43	107.18	357.82	-580.35	145.11	419.8	-1160.6	615.64	160.29	-1100.5	522.75	165.75	-1177.2	530.26	187.43	-1090.9	614.19	139.64	-1135.3	446.51	182.46	-1130.8	452.24	322.99	-1249.2	296.37	198.83	-1197.9	198.26	216.79	-1268.1	225.85	222.22	-1190.8	271.32	196.59	-1261.7	106.34	241.04	-1246	104.29	320.8	-1322	73.454	277.11	-1313.5	47.653	309.36	-1317.7	46.419	248.04	-1153.3	34.526	214.27	-1129.8	44.103	323.51	-1069.5	57.025	274.87	-1103.5	1395.4	291.5	-1182.1	1146.5	295.72
107	0.44167	-912.13	1093	301.67	-1023.4	1333.3	440.94	-1007.4	1332.1	147.44	-991.82	1618.6	305.87	NaN	NaN	NaN	NaN	NaN	NaN	-1152.5	959.97	370.92	-1167.4	963.51	298.5	-966.33	805.32	500.29	-1089.9	817.08	117.15	-1030.5	972.89	467.31	-1081.1	961.88	140.37	-1183	912.36	332.81	-896.39	625.39	488.95	-823.13	571.65	441.97	-880.48	537.71	471.62	-844.66	657.84	456.01	-839.74	473.77	454.16	-851.48	455.82	306.6	-843.61	256.98	434.95	-742.44	211.79	429.38	-807.64	193.08	428.1	-772.95	274.53	443.43	-750.89	111.71	419.96	-738.23	134.44	341.74	-794.4	74.669	357.31	-765.03	54.212	330.33	-782.92	43.441	391.31	-637.06	91.825	454.82	-595.17	110.59	355.98	-568.5	149.07	417.86	-1156.5	615.33	160.29	-1096.9	522.09	165.76	-1173.5	530.05	187.44	-1086.8	613.47	139.62	-1132.2	445.98	182.47	-1127.8	451.76	323.04	-1247.5	296.57	198.9	-1196.7	198.18	216.8	-1266.7	226.31	222.09	-1188.9	271.18	196.55	-1261.5	106.73	240.99	-1245.7	104.59	320.78	-1321.9	73.823	277.04	-1313.4	48.053	309.34	-1317.6	46.758	248.01	-1153.3	34.469	214.28	-1129.7	44.07	323.49	-1069.4	56.82	274.85	-1097.9	1394.3	291.68	-1176.4	1145.3	295.85
